Coordinates
version=1
nRows=30
nColumns=23
inDegrees=yes

Units are S.I. units (second, meters, Newtons, ...)
If the header above contains a line with 'inDegrees', this indicates whether rotational values are in degrees (yes) or radians (no).

endheader
time	pelvis_tilt	pelvis_list	pelvis_rotation	pelvis_tx	pelvis_ty	pelvis_tz	hip_flexion_r	hip_adduction_r	hip_rotation_r	knee_angle_r	knee_angle_r_beta	ankle_angle_r	subtalar_angle_r	mtp_angle_r	hip_flexion_l	hip_adduction_l	hip_rotation_l	knee_angle_l	knee_angle_l_beta	ankle_angle_l	subtalar_angle_l	mtp_angle_l
     13.84666667	      0.86108660	     -8.27828396	     -2.38428139	      2.28984200	      1.04339988	      1.03068458	     22.59371473	     10.66398758	     -6.65300105	     20.30440039	      0.35437864	      7.51390095	      3.56749287	      0.00000000	    -13.29623418	     -7.32550626	     -0.09589396	     44.81018554	      0.78208528	    -20.43416546	     -8.40502220	      0.00000000
     13.85333333	      1.51186964	     -8.44683211	     -2.24232005	      2.28976311	      1.03997874	      1.02996695	     21.94235127	     10.87922765	     -6.31711761	     21.68170155	      0.37841708	      6.92758026	      2.02273792	      0.00000000	    -13.24129543	     -7.41328942	      0.55351306	     46.85206925	      0.81772287	    -19.59366571	     -9.08104207	      0.00000000
     13.86000000	      1.65927173	     -8.51393401	     -2.22225632	      2.28959527	      1.03573319	      1.02945814	     21.86626219	     11.13871028	     -5.46432512	     23.21201336	      0.40512606	      6.24808425	     -0.30655904	      0.00000000	    -12.56318680	     -7.40816680	      1.16235719	     48.97584892	      0.85478982	    -18.64988063	     -9.76922001	      0.00000000
     13.86666667	      2.29327426	     -8.74523384	     -2.18795204	      2.28936096	      1.03167479	      1.02891760	     21.36041058	     11.45473527	     -5.14682592	     25.03852229	      0.43700465	      5.95949632	     -1.52827875	      0.00000000	    -12.45596784	     -7.60866693	      1.50339646	     50.97522206	      0.88968546	    -17.54543820	    -10.38166904	      0.00000000
     13.87333333	      1.79753840	     -8.66532755	     -2.42288368	      2.28863768	      1.02629221	      1.02908382	     22.10390822	     11.88302454	     -3.48954013	     26.92550853	      0.46993878	      5.31413605	     -5.09569845	      0.00000000	    -10.92860614	     -7.51460698	      1.89396916	     53.21305544	      0.92874302	    -16.27327320	    -10.79397396	      0.00000000
     13.88000000	      1.91757086	     -8.84814766	     -2.41307746	      2.28798435	      1.02140414	      1.02898111	     22.22759977	     12.41198419	     -2.58219686	     28.95591352	      0.50537603	      5.17721683	     -7.61155317	      0.00000000	    -10.07661924	     -7.78829493	      2.20091884	     55.31101139	      0.96535926	    -14.91478797	    -11.14432917	      0.00000000
     13.88666667	      1.83198375	     -9.06792420	     -2.57573846	      2.28717421	      1.01614853	      1.02917700	     22.62016033	     13.09049076	     -1.54733906	     31.15119831	      0.54369098	      5.27839186	    -10.07291362	      0.00000000	     -8.96647273	     -8.16311399	      2.25795823	     57.41671808	      1.00211078	    -13.50741203	    -11.47100720	      0.00000000
     13.89333333	      2.48589790	     -9.43130257	     -2.45466116	      2.28643710	      1.01170230	      1.02885162	     22.23917245	     13.67107631	     -1.28191352	     33.43454172	      0.58354284	      6.09259504	    -11.32505018	      0.00000000	     -8.66144016	     -8.71795719	      2.34801978	     59.31755781	      1.03528669	    -12.16733135	    -12.13455025	      0.00000000
     13.90000000	      1.58203221	     -9.59781550	     -2.80040667	      2.28551995	      1.00550051	      1.02968961	     23.53793679	     14.53001159	      0.01855309	     35.78135236	      0.62450241	      6.46632876	    -14.25250827	      0.00000000	     -6.49268089	     -9.22760158	      2.25497012	     61.52580430	      1.07382786	    -10.59513468	    -12.07221093	      0.00000000
     13.90666667	      1.63943063	    -10.02752637	     -2.73976896	      2.28463864	      1.00048253	      1.02972750	     23.73902378	     15.33247946	      0.44195295	     37.99448067	      0.66312879	      7.46075132	    -15.90380993	      0.00000000	     -5.34093581	    -10.05635504	      2.26512286	     63.52028589	      1.10863813	     -9.09905641	    -12.24331443	      0.00000000
     13.91333333	      2.25680884	    -10.38163865	     -2.59521598	      2.28373206	      0.99643758	      1.02935987	     23.23213132	     15.93280432	      0.66963752	     40.08853152	      0.69967687	      8.92608153	    -16.81612059	      0.00000000	     -4.79858281	    -10.72783893	      2.28048287	     65.27260278	      1.13922183	     -7.92061821	    -12.98675342	      0.00000000
     13.92000000	      1.38512387	    -10.72853254	     -2.71805508	      2.28277587	      0.99067226	      1.02964235	     24.30319949	     16.72190683	      1.13997681	     42.13039466	      0.73531410	     10.08152398	    -18.32625722	      0.00000000	     -2.41041798	    -11.60248270	      2.28198066	     67.37873985	      1.17598086	     -6.43179415	    -13.04453744	      0.00000000
     13.92666667	      1.98315298	    -10.99485571	     -2.59749384	      2.28157009	      0.98720901	      1.02914043	     23.58917572	     17.20704267	      1.41015763	     43.86590054	      0.76560439	     11.65126299	    -18.92171892	      0.00000000	     -1.68999318	    -12.19429992	      2.31518238	     69.00978592	      1.20444798	     -5.36928855	    -13.80440366	      0.00000000
     13.93333333	      1.43448160	    -11.41477102	     -2.55113251	      2.28062150	      0.98250384	      1.02877286	     24.02011881	     17.81817939	      1.44671549	     45.40160632	      0.79240752	     13.11140165	    -19.39403169	      0.00000000	      0.47867230	    -13.15467348	      2.42019680	     70.88524256	      1.23718087	     -4.01942456	    -14.04004610	      0.00000000
     13.94000000	      1.90674639	    -11.54268069	     -2.47701586	      2.27917028	      0.97972032	      1.02808932	     23.13460409	     18.12818928	      1.82002869	     46.64847360	      0.81416946	     14.58591444	    -19.78283437	      0.00000000	      1.48208675	    -13.56355987	      2.51099635	     72.35449127	      1.26282410	     -3.09269148	    -14.91583320	      0.00000000
     13.94666667	      1.12442354	    -11.65759439	     -2.34101143	      2.27784139	      0.97575853	      1.02728536	     23.55776502	     18.28480754	      1.78035150	     47.71672711	      0.83281400	     15.94160348	    -19.86067489	      0.00000000	      4.12185359	    -13.99136287	      3.02084032	     74.01491499	      1.29180396	     -2.14159213	    -15.73720586	      0.00000000
     13.95333333	      1.54098692	    -11.69603291	     -2.32621336	      2.27614601	      0.97388103	      1.02656486	     22.40834071	     18.46836148	      2.24711322	     48.42664320	      0.84520437	     17.18390355	    -19.97752783	      0.00000000	      5.28049069	    -14.26635545	      3.12651967	     75.24544698	      1.31328080	     -1.34519370	    -16.50556515	      0.00000000
     13.96000000	      1.75708564	    -11.78061346	     -2.29938582	      2.27464308	      0.97223768	      1.02568223	     21.31501609	     18.61649993	      2.57754560	     48.84910004	      0.85257763	     18.40575625	    -19.95235897	      0.00000000	      6.67664479	    -14.56999394	      3.30186262	     76.33979270	      1.33238073	     -0.49707607	    -17.40872758	      0.00000000
     13.96666667	      1.31878576	    -11.92689686	     -1.83837466	      2.27329435	      0.97026673	      1.02409552	     20.90932705	     18.51487577	      2.12334788	     49.00671995	      0.85532862	     19.48666383	    -19.37890759	      0.00000000	      9.08940829	    -14.78155222	      4.22744640	     77.47103545	      1.35212464	      0.15959972	    -18.36851076	      0.00000000
     13.97333333	      1.50904590	    -11.80874224	     -1.88945867	      2.27161574	      0.96970264	      1.02344970	     19.58528279	     18.47574690	      2.64185755	     49.00985210	      0.85538329	     20.36641838	    -19.29578805	      0.00000000	     10.50529980	    -14.76065576	      4.41998660	     78.18949809	      1.36466418	      0.90014185	    -19.01794914	      0.00000000
     13.98000000	      1.60379763	    -11.69518995	     -1.91258399	      2.27009798	      0.96957033	      1.02275842	     18.23372534	     18.37776297	      3.07581355	     48.75936825	      0.85101152	     21.12085088	    -19.09688516	      0.00000000	     12.00510423	    -14.69001281	      4.69269744	     78.71329895	      1.37380623	      1.61614942	    -19.66937167	      0.00000000
     13.98666667	      1.66008776	    -11.71583881	     -1.22215302	      2.26889166	      0.96978159	      1.02092071	     16.92935254	     18.02330276	      2.45291610	     48.20845907	      0.84139634	     21.88345250	    -18.32170686	      0.00000000	     13.79316260	    -14.48058988	      5.80666001	     79.12232897	      1.38094515	      2.12432756	    -20.61367032	      0.00000000
     13.99333333	      1.62979514	    -11.45980531	     -1.30127978	      2.26759242	      0.97049133	      1.02049513	     15.53324339	     17.77742008	      2.95626912	     47.65393117	      0.83171800	     22.39267382	    -18.02081900	      0.00000000	     15.30507790	    -14.17897499	      6.04292485	     79.21617143	      1.38258301	      2.88793402	    -20.93386237	      0.00000000
     14.00000000	      2.06101796	    -11.29521000	     -0.62479811	      2.26656719	      0.97212102	      1.01893225	     13.61674692	     17.27747455	      2.47859711	     46.76141030	      0.81614057	     22.95037940	    -17.14756541	      0.00000000	     16.46175975	    -13.67552104	      7.00063298	     79.09584969	      1.38048300	      3.52158796	    -21.45522892	      0.00000000
     14.00666667	      1.87023818	    -10.98818628	     -0.75392903	      2.26568613	      0.97356318	      1.01874109	     12.24045119	     16.96104959	      2.99817468	     45.92067490	      0.80146697	     23.19975016	    -16.78444320	      0.00000000	     17.97523765	    -13.27634079	      7.17420115	     78.74952352	      1.37443847	      4.26505266	    -21.60499758	      0.00000000
     14.01333333	      2.47804279	    -10.61906872	     -0.18659691	      2.26500382	      0.97635554	      1.01759075	      9.94317407	     16.33302180	      2.76323115	     44.73676076	      0.78080377	     23.42064873	    -16.06479125	      0.00000000	     18.65478294	    -12.53004169	      7.88007723	     78.11378466	      1.36334273	      4.92309778	    -21.86468396	      0.00000000
     14.02000000	      2.11357450	    -10.26816438	     -0.37027468	      2.26449595	      0.97835894	      1.01760588	      8.66266338	     15.94717717	      3.28520688	     43.70013557	      0.76271125	     23.38034320	    -15.58594458	      0.00000000	     20.17740366	    -12.06438926	      7.96633096	     77.36787110	      1.35032409	      5.62879238	    -21.83108020	      0.00000000
     14.02666667	      2.79623106	     -9.62659399	     -0.04876051	      2.26421004	      0.98212084	      1.01699912	      6.15537283	     15.09955696	      3.34929345	     42.35481579	      0.73923099	     23.25722102	    -14.93864297	      0.00000000	     20.42879018	    -11.12425055	      8.21707485	     76.21123288	      1.33013694	      6.23508362	    -21.94629384	      0.00000000
     14.03333333	      2.27321450	     -9.25707928	     -0.25685988	      2.26402490	      0.98455466	      1.01709503	      5.00839371	     14.64391078	      3.79596757	     41.17319208	      0.71860777	     22.85040115	    -14.38745988	      0.00000000	     21.96820349	    -10.64769789	      8.20704912	     75.11354915	      1.31097875	      6.84131090	    -21.80372921	      0.00000000
     14.04000000	      2.77786446	     -8.39682882	     -0.16083080	      2.26416452	      0.98883892	      1.01687624	      2.64348567	     13.59198330	      4.06178390	     39.74755198	      0.69372565	     22.29786742	    -13.89101585	      0.00000000	     22.12850488	     -9.57473910	      8.07894244	     73.51089002	      1.28300707	      7.25578764	    -21.93728892	      0.00000000
